<svg width="15" height="13" viewBox="0 0 15 13" fill="none" xmlns="http://www.w3.org/2000/svg">
<path d="M5.50558 11.6364C5.50558 11.0504 5.02009 10.5649 4.43415 10.5649C3.84821 10.5649 3.36272 11.0504 3.36272 11.6364C3.36272 12.2223 3.84821 12.7078 4.43415 12.7078C5.02009 12.7078 5.50558 12.2223 5.50558 11.6364ZM13.0056 11.6364C13.0056 11.0504 12.5201 10.5649 11.9342 10.5649C11.3482 10.5649 10.8627 11.0504 10.8627 11.6364C10.8627 12.2223 11.3482 12.7078 11.9342 12.7078C12.5201 12.7078 13.0056 12.2223 13.0056 11.6364ZM14.077 2.52921C14.077 2.23624 13.8343 1.99349 13.5413 1.99349H3.48828C3.40458 1.59171 3.38783 0.922067 2.82701 0.922067H0.684152C0.391183 0.922067 0.148438 1.16481 0.148438 1.45778C0.148438 1.75075 0.391183 1.99349 0.684152 1.99349H2.39174L3.87333 8.88245C3.7394 9.14193 3.36272 9.76972 3.36272 10.0292C3.36272 10.3222 3.60547 10.5649 3.89844 10.5649H12.4699C12.7628 10.5649 13.0056 10.3222 13.0056 10.0292C13.0056 9.73624 12.7628 9.4935 12.4699 9.4935H4.76897C4.85268 9.32608 4.96987 9.1503 4.96987 8.95778C4.96987 8.75689 4.9029 8.56437 4.86105 8.37184L13.5999 7.35064C13.8677 7.31716 14.077 7.08278 14.077 6.81492V2.52921Z" fill="white"/>
</svg>
