<svg width="15" height="14" viewBox="0 0 15 14" fill="none" xmlns="http://www.w3.org/2000/svg">
<path d="M14.7246 4.98369C14.5532 4.80411 14.3189 4.68732 14.0637 4.65415L10.0772 4.13968L8.49959 0.621419C8.26924 0.106444 7.63521 -0.136733 7.08349 0.0782621C6.82046 0.180765 6.61133 0.375928 6.50153 0.621419L4.92397 4.13968L0.937462 4.65366C0.343518 4.73082 -0.0709519 5.24281 0.0117225 5.79715C0.047253 6.03538 0.172394 6.25404 0.364799 6.41405L3.36835 8.91387L2.75121 12.8366C2.68436 13.2349 2.88037 13.6318 3.24833 13.843C3.6111 14.0595 4.07774 14.0514 4.43163 13.8225L7.50053 11.8746L10.5694 13.8245C11.0646 14.1382 11.7385 14.0178 12.0747 13.5556C12.2274 13.3456 12.29 13.0896 12.2499 12.8386L11.6328 8.91434L14.6363 6.41451C15.084 6.04218 15.1236 5.40156 14.7246 4.98369ZM10.7039 8.34938C10.5695 8.46144 10.5045 8.629 10.5309 8.79537L11.1737 12.9951L7.8032 10.8562C7.6215 10.741 7.3828 10.741 7.20109 10.8562L3.81079 12.9821L4.4702 8.79338C4.49582 8.62769 4.43084 8.46103 4.29717 8.34941L1.0831 5.64558L5.37281 5.09311C5.56063 5.06894 5.72074 4.9539 5.79384 4.79064L7.50693 0.999909C7.50888 1.00214 7.51032 1.00468 7.51123 1.00741L9.20665 4.78865C9.27975 4.95191 9.43989 5.06695 9.62768 5.09112L13.9228 5.66808L10.7039 8.34938Z" fill="#818796"/>
</svg>
